<svg xmlns="http://www.w3.org/2000/svg" viewBox="0 0 30 30">
  <path
    d="M 17.984375 1.9863281 A 1.0001 1.0001 0 0 0 17 3 L 17 4 C 17 5.6449698 18.35503 7 20 7 L 22.5 7 C 23.892562 7 25 8.107438 25 9.5 C 25 10.892562 23.892562 12 22.5 12 L 22.339844 12 C 21.346253 10.220624 19.330659 9 17 9 C 15.460491 9 14.061243 9.536464 13 10.410156 L 13 6.7265625 C 13 6.0895625 12.230297 5.7697031 11.779297 6.2207031 L 10.416016 7.5839844 C 9.6968361 7.2235115 8.881455 7 8 7 C 7.118545 7 6.3031639 7.2235115 5.5839844 7.5839844 L 4.2207031 6.2207031 C 3.7697031 5.7697031 3 6.0895625 3 6.7265625 L 3 11.5 C 3 13.676763 4.7180461 15.491153 7 15.908203 L 7 26 C 7 26.552 7.448 27 8 27 C 8.552 27 9 26.552 9 26 L 9 19 C 9 18.448 9.448 18 10 18 C 10.552 18 11 18.448 11 19 L 11 26 C 11 26.552 11.448 27 12 27 C 12.552 27 13 26.552 13 26 L 13 21 C 13 18.661 15.006578 16.791531 17.392578 17.019531 C 19.472578 17.217531 21 19.082875 21 21.171875 L 21 26 C 21 26.552 21.448 27 22 27 C 22.552 27 23 26.552 23 26 L 23 14.5 C 23 14.317391 22.989665 14.137021 22.970703 13.958984 C 24.866602 13.751246 26.363136 12.331197 26.796875 10.5 L 27 10.5 L 27 9.5 C 27 7.026562 24.973438 5 22.5 5 L 20 5 C 19.43497 5 19 4.5650302 19 4 L 19 3 A 1.0001 1.0001 0 0 0 17.984375 1.9863281 z M 5.0546875 10 L 7.5 10.888672 C 7.299 11.711672 6.5881094 12.180547 5.9121094 11.935547 C 5.2361094 11.689547 4.8526875 10.823 5.0546875 10 z M 10.945312 10 C 11.147312 10.823 10.763891 11.689547 10.087891 11.935547 C 9.4118906 12.180547 8.701 11.711672 8.5 10.888672 L 10.945312 10 z M 17 19 L 17 26 C 17 26.552 17.448 27 18 27 C 18.552 27 19 26.552 19 26 L 19 21.171875 C 19 20.055875 18.211125 19.105766 17.203125 19.009766 C 17.135125 19.002766 17.067 19 17 19 z"
  />
</svg>
